<svg width="26" height="14" viewBox="0 0 26 14" fill="none" xmlns="http://www.w3.org/2000/svg">
<path d="M23.8295 13.5345L14.2114 3.56827C13.7141 3.05296 12.909 3.05296 12.4116 3.56827L2.71721 13.6147M23.8295 13.5345L1.02555 11.8537L11.6203 0.877141L11.6204 0.877064C12.5548 -0.0923548 14.0683 -0.0923548 15.0026 0.877064L15.0027 0.877133L25.52 11.775C25.9599 12.2307 25.9601 12.9731 25.52 13.4304C25.0815 13.8846 24.3745 13.8844 23.9376 13.4305L23.9374 13.4304L14.3193 3.4641C13.763 2.88768 12.86 2.88768 12.3037 3.4641L12.3037 3.46411L2.6094 13.5104M23.8295 13.5345C24.3255 14.0498 25.1307 14.0498 25.628 13.5345L23.8295 13.5345ZM2.71721 13.6147L2.6094 13.5104M2.71721 13.6147C2.21481 14.134 1.39952 14.1276 0.904755 13.6004C0.420158 13.0838 0.426521 12.2598 0.917475 11.7497L2.60926 13.5105M2.71721 13.6147L2.60926 13.5105M2.6094 13.5104L2.60926 13.5105M2.6094 13.5104L1.0254 11.8539C0.589846 12.3065 0.584377 13.0396 1.01416 13.4978C1.45031 13.9625 2.1665 13.968 2.60926 13.5105" fill="#319D31" stroke="white" stroke-width="0.3"/>
</svg>
