<svg width="21" height="20" viewBox="0 0 21 20" fill="none" xmlns="http://www.w3.org/2000/svg">
<path d="M18.7232 1.14091H17.6498C16.0952 1.14091 15.4474 1.73852 15.3734 3.11485L12.1346 0.670056C11.6904 0.235425 10.691 0 9.98773 0H5.89759C4.49103 0 3.08447 1.03225 2.75133 2.29992L0.160298 9.99651C-0.117313 10.739 -0.0247766 11.4453 0.363879 12.0067C0.771041 12.5862 1.49283 12.9122 2.32566 12.9122H6.63789C6.9155 12.9122 7.19311 13.0208 7.35968 13.2381C7.54475 13.4554 7.61878 13.7271 7.58176 14.035L7.04505 17.4034C6.82296 18.3994 7.50773 19.5403 8.52564 19.8844C9.48802 20.2285 10.5985 19.7577 11.0612 19.0876L15.3364 12.8578V13.6365C15.3364 15.1578 16.0026 15.7735 17.6313 15.7735H18.7047C20.3334 15.7735 20.9996 15.1578 20.9996 13.6365V3.25973C21.0181 1.75663 20.3519 1.14091 18.7232 1.14091Z" fill="#BFDB88" fill-opacity="0.6"/>
</svg>
