<svg width="34" height="24" viewBox="0 0 34 24" fill="none" xmlns="http://www.w3.org/2000/svg">
<path d="M7.65344 4.20323L7.75319 4.51693L8.05631 4.38857C8.21339 4.32205 8.38045 4.28218 8.55062 4.27058C8.55119 4.27054 8.55176 4.27051 8.55232 4.27047L31.3979 3.01462C31.6273 3.01333 31.8538 3.06542 32.0596 3.16679C32.2674 3.26912 32.4482 3.4188 32.5875 3.60378C32.7268 3.78877 32.8207 4.00388 32.8617 4.2318C32.9026 4.45971 32.8895 4.69407 32.8233 4.91599L32.8232 4.91596L32.8213 4.92322C31.9357 8.18981 30.8788 11.4075 29.6549 14.563C29.5077 14.939 29.3512 15.394 29.1844 15.8791C29.16 15.95 29.1354 16.0216 29.1105 16.0936C28.9145 16.6623 28.7026 17.2671 28.4683 17.8517C28.2337 18.4369 27.9793 18.9946 27.7004 19.4695C27.4243 19.9394 27.134 20.3109 26.83 20.5498C25.8341 21.1236 24.684 21.3729 23.5396 21.2629L23.0292 21.2138L23.2365 21.6828C23.3332 21.9015 23.3737 22.1408 23.3545 22.3791C23.3353 22.6174 23.2568 22.8472 23.1264 23.0475C22.9959 23.2478 22.8175 23.4124 22.6073 23.5264C22.3971 23.6403 22.1618 23.7 21.9227 23.7C21.6836 23.7 21.4483 23.6403 21.2381 23.5264C21.028 23.4124 20.8495 23.2478 20.719 23.0475C20.5886 22.8472 20.5101 22.6174 20.4909 22.3791C20.4717 22.1408 20.5122 21.9015 20.6089 21.6828L20.7951 21.2615H20.3345H16.3816H15.9312L16.1048 21.6771C16.1959 21.8954 16.2318 22.1329 16.2091 22.3684C16.1864 22.6039 16.1059 22.8301 15.9748 23.027C15.8436 23.2239 15.6659 23.3854 15.4573 23.497C15.2487 23.6087 15.0158 23.6672 14.7793 23.6672C14.5427 23.6672 14.3098 23.6087 14.1012 23.497C13.8926 23.3854 13.7149 23.2239 13.5837 23.027C13.4526 22.8301 13.3721 22.6039 13.3494 22.3684C13.3267 22.1329 13.3626 21.8954 13.4537 21.6771L13.6273 21.2615H13.1769H10.4805V21.2613L10.4693 21.2617C10.2789 21.2688 10.089 21.2356 9.91235 21.1641L9.7999 21.4423L9.91235 21.1641C9.73565 21.0927 9.57606 20.9847 9.44405 20.8472C9.31203 20.7097 9.21058 20.5459 9.14635 20.3665C9.08212 20.187 9.05656 19.996 9.07136 19.806L9.0753 19.7553L9.06231 19.7061C8.46864 17.4587 7.8327 15.2258 7.19768 12.9961L7.19728 12.9947L7.19175 12.9753L7.18368 12.9569C7.16105 12.905 7.14313 12.8513 7.13014 12.7962L7.12815 12.7878L7.12568 12.7795C7.02749 12.4499 6.93271 12.1164 6.83733 11.7808L6.83708 11.7799C6.74196 11.4452 6.64623 11.1084 6.54687 10.7748L6.54641 10.7733C6.37206 10.199 6.21706 9.61166 6.05992 9.01621C6.00243 8.79836 5.94465 8.57942 5.88553 8.35963C5.66613 7.54397 5.4299 6.72325 5.12753 5.93854L5.12755 5.93854L5.12653 5.93596C5.10785 5.88878 5.0895 5.84239 5.07146 5.79677C4.89074 5.33967 4.74079 4.96042 4.59155 4.65462C4.4261 4.31562 4.24901 4.03942 4.00483 3.8275C3.51563 3.40296 2.82963 3.30355 1.71811 3.23408C0.784645 3.17574 0.301534 2.42768 0.300004 1.66233C0.299242 1.28167 0.421071 0.925655 0.645465 0.6773C0.863161 0.436358 1.1975 0.273528 1.6808 0.303547L1.68122 0.303573C2.67174 0.363711 3.46801 0.419529 4.12987 0.525359C4.78993 0.630899 5.29604 0.783401 5.7111 1.02558C6.5278 1.50212 7.07134 2.37278 7.65344 4.20323ZM24.8422 18.1957L24.8434 18.1951C25.2818 17.9496 25.6429 17.416 25.947 16.8091C26.2588 16.1869 26.5404 15.4246 26.7927 14.6484C27.0412 13.8835 27.2645 13.0947 27.4612 12.3995L27.471 12.365C27.6719 11.6553 27.8421 11.0565 27.9853 10.6677L27.9862 10.6653C28.4551 9.35813 28.8948 7.9393 29.2915 6.52259L29.4043 6.1198L28.9866 6.14213L8.91154 7.21506L8.53287 7.23529L8.6397 7.59915L9.61381 10.9168L9.68678 11.1653L9.94328 11.1293L19.4161 9.80229L19.3745 9.50519L19.4161 9.80229C20.3389 9.67298 21.0174 10.3096 21.2243 11.0538C21.3268 11.4226 21.3015 11.7849 21.1547 12.0599C21.0138 12.3238 20.7418 12.5444 20.2651 12.6103L20.2645 12.6104L10.8199 13.9375L10.4785 13.9854L10.5732 14.317C10.9398 15.5999 11.2923 16.8832 11.6453 18.1681L11.7076 18.3948L11.9426 18.3885L17.7127 18.2333C18.0811 18.2337 18.6132 18.277 19.2402 18.3334C19.34 18.3423 19.4419 18.3516 19.5457 18.3611C20.0902 18.4106 20.6846 18.4646 21.2734 18.5027C21.9738 18.548 22.6765 18.5714 23.2903 18.5366C23.8929 18.5025 24.4544 18.4107 24.8422 18.1957ZM28.9165 6.74673C28.5441 8.05624 28.1361 9.35875 27.7038 10.564C27.5533 10.9725 27.3765 11.5974 27.1732 12.3155C26.5757 14.4267 25.7502 17.3434 24.6968 17.9333L28.9165 6.74673Z" fill="black" fill-opacity="0.4" stroke="#BFDB88" stroke-width="0.6"/>
</svg>
