<svg width="21" height="20" viewBox="0 0 21 20" fill="none" xmlns="http://www.w3.org/2000/svg">
<path d="M20.631 7.99329C20.2239 7.41378 19.5023 7.08781 18.6696 7.08781H14.3584C14.0809 7.08781 13.8033 6.97915 13.6368 6.76183C13.4518 6.54452 13.3778 6.27287 13.4148 5.96501L13.9513 2.59661C14.1734 1.60058 13.4888 0.459666 12.4711 0.115583C11.5089 -0.228501 10.3988 0.242351 9.93617 0.912409L5.66195 7.14213V6.36342C5.66195 4.84221 4.99584 4.22648 3.36757 4.22648H2.29439C0.666112 4.24459 0 4.86032 0 6.38153V16.7222C0 18.2434 0.666112 18.8591 2.29439 18.8591H3.36757C4.92183 18.8591 5.56944 18.2615 5.62495 16.8851L8.86299 19.3299C9.32557 19.7646 10.3062 20 11.0094 20H15.0985C16.5048 20 17.911 18.9677 18.2441 17.7001L20.8345 10.0035C21.1121 9.26097 21.038 8.55469 20.631 7.99329Z" fill="#BFDB88" fill-opacity="0.6"/>
</svg>
