<svg width="20" height="20" viewBox="0 0 20 20" fill="none" xmlns="http://www.w3.org/2000/svg">
<path d="M9.2563 1.97244C9.49192 1.41812 9.60979 1.14097 9.77386 1.05562C9.91635 0.981462 10.0837 0.981462 10.2262 1.05562C10.3902 1.14097 10.5081 1.41812 10.7437 1.97244L12.6206 6.38767C12.6903 6.55154 12.7251 6.63347 12.779 6.69622C12.8267 6.75174 12.885 6.79615 12.95 6.82654C13.0236 6.86091 13.1087 6.87032 13.2789 6.88915L17.8634 7.39654C18.4389 7.46023 18.7267 7.49208 18.8548 7.62932C18.9661 7.74853 19.0178 7.91545 18.9946 8.08049C18.9679 8.27046 18.7529 8.47356 18.323 8.87987L14.8984 12.1161C14.7714 12.2361 14.7078 12.2962 14.6676 12.3693C14.6319 12.4341 14.6096 12.5059 14.6022 12.5802C14.5938 12.6642 14.6115 12.7519 14.647 12.9275L15.6035 17.6563C15.7236 18.25 15.7837 18.5468 15.6988 18.7169C15.625 18.8648 15.4896 18.9679 15.3328 18.9958C15.1522 19.0278 14.9016 18.8763 14.4002 18.573L10.4068 16.1578C10.2586 16.0682 10.1845 16.0234 10.1058 16.0058C10.036 15.9904 9.96398 15.9904 9.89426 16.0058C9.81548 16.0234 9.74139 16.0682 9.59319 16.1578L5.59986 18.573C5.09851 18.8763 4.84783 19.0278 4.66727 18.9958C4.51041 18.9679 4.375 18.8648 4.30127 18.7169C4.2164 18.5468 4.27644 18.25 4.39653 17.6563L5.35302 12.9275C5.38852 12.7519 5.40627 12.6642 5.39784 12.5802C5.39038 12.5059 5.36813 12.4341 5.3325 12.3693C5.29225 12.2962 5.2287 12.2361 5.1016 12.1161L1.67708 8.87987C1.24715 8.47356 1.03218 8.27046 1.00545 8.08049C0.982243 7.91545 1.03396 7.74853 1.14524 7.62932C1.27337 7.49208 1.56115 7.46023 2.13672 7.39654L6.7212 6.88915C6.89136 6.87032 6.97643 6.86091 7.05 6.82654C7.11508 6.79615 7.17336 6.75174 7.22106 6.69622C7.27495 6.63347 7.30978 6.55154 7.37945 6.38767L9.2563 1.97244Z" fill="#FFB800" stroke="#FFB800" stroke-width="2" stroke-linecap="round" stroke-linejoin="round"/>
</svg>
